<?xml version="1.0" encoding="UTF-8" standalone="no"?><svg xmlns="http://www.w3.org/2000/svg" xmlns:xlink="http://www.w3.org/1999/xlink" data-name="Layer 1" fill="#000000" height="909.4" preserveAspectRatio="xMidYMid meet" version="1" viewBox="33.6 1045.3 2932.8 909.4" width="2932.8" zoomAndPan="magnify"><g id="change1_1"><path d="M440.81,1856.88H2609.52c197.1,0,356.88-159.78,356.88-356.88h0c0-197.1-159.78-356.88-356.88-356.88H440.81Z" fill="#735e59"/></g><g id="change2_1"><circle cx="488.28" cy="1500" fill="#ffffff" r="454.68"/></g><g id="change1_2"><path d="M488.28,1902.06c-221.7,0-402.06-180.36-402.06-402.06s180.36-402.06,402.06-402.06S890.33,1278.3,890.33,1500,710,1902.06,488.28,1902.06Zm0-792.68c-215.39,0-390.63,175.23-390.63,390.62s175.24,390.62,390.63,390.62S878.9,1715.39,878.9,1500,703.66,1109.38,488.28,1109.38Z" fill="#735e59"/></g><g id="change1_3"><path d="M482.08,1740.49a27.69,27.69,0,0,0-2.86-1.11c-18.86-5.05-30.53-19.81-30.57-39.29q-.15-76.2,0-152.41V1395.49c-2.47,2.27-4.11,3.67-5.63,5.19-22.36,22.33-44.49,44.89-67.11,67s-59.25,11.71-66.53-18.59c-3.62-15.07,1-28,11.93-38.93q52.88-52.69,105.6-105.56c10.66-10.66,21.26-21.38,32-32,17.71-17.44,41.25-17.46,58.89.13q69.09,68.91,138,138c11.14,11.15,15.21,24.46,11.05,39.68-4,14.75-13.93,24.26-28.76,27.82s-27.7-.65-38.47-11.45q-32.82-32.9-65.68-65.75a46.74,46.74,0,0,1-4.07-5.42l-1.92.92v7c0,95.62-.41,191.24.29,286.85.18,25-7.83,42.38-32.51,50.12Z" fill="#735e59"/></g><g id="change2_2"><path d="M304.45,1688.25c1.54,3.19,2.76,6.58,4.67,9.54,3.62,5.61,9.37,8.22,15.58,10H304.45Z" fill="#ffffff"/></g><g id="change3_1"><path d="M1240.36,1542.34V1380.5H1295v157.06c0,18.09,8.54,33.45,37.56,33.45s37.55-15.36,37.55-33.45V1380.5h54.63v161.84c0,51.21-39.6,81.94-92.18,81.94S1240.36,1593.55,1240.36,1542.34Z" fill="#fffaf3"/></g><g id="change3_2"><path d="M1638.1,1462.44c0,45.41-36.53,81.94-83.65,81.94H1518.6v75.12H1464v-239h90.47C1601.57,1380.5,1638.1,1417,1638.1,1462.44Zm-54.63,0c0-17.41-12.29-30.72-29-30.72H1518.6v61.45h35.85C1571.18,1493.17,1583.47,1479.86,1583.47,1462.44Z" fill="#fffaf3"/></g><g id="change3_3"><path d="M1805.39,1566.92v52.58h-140v-239H1720v186.42Z" fill="#fffaf3"/></g><g id="change3_4"><path d="M1805.39,1500c0-70.33,55.65-124.28,124.27-124.28s124.28,54,124.28,124.28-55.65,124.28-124.28,124.28S1805.39,1570.33,1805.39,1500Zm193.92,0c0-42.68-30.73-71-69.65-71s-69.64,28.33-69.64,71,30.72,71,69.64,71S1999.31,1542.68,1999.31,1500Z" fill="#fffaf3"/></g><g id="change3_5"><path d="M2216.11,1581.94h-88.77l-12,37.56h-59.75l81.26-239h69.65l81.26,239h-59.75Zm-16.39-51.21-28-87.75-28,87.75Z" fill="#fffaf3"/></g><g id="change3_6"><path d="M2520,1500c0,67.6-50.19,119.5-116.08,119.5h-95.59v-239h95.59C2469.77,1380.5,2520,1432.4,2520,1500Zm-52.58,0c0-41-25.94-66.92-63.5-66.92h-41v133.84h41C2441.44,1566.92,2467.38,1541,2467.38,1500Z" fill="#fffaf3"/></g></svg>